<?xml version="1.0" encoding="UTF-8"?>
<svg id="Capa_2" data-name="Capa 2" xmlns="http://www.w3.org/2000/svg" width="181.43mm" height="27.51mm" viewBox="0 0 514.28 77.98">
  <g id="Capa_1-2" data-name="Capa 1">
    <g>
      <g>
        <path d="M11.88,0C5.18,.36,0,5.83,0,12.24V77.98l61.06-.22c3.46,.07,10.22-3.96,10.22-11.09V0H11.88Zm54.5,64.01c0,4.46-3.74,8.42-6.91,8.5-26.57,.22-54.5,0-54.5,0V13.54s0-6.77,6.91-7.34h54.5v57.82Z" fill="#009fe3" fill-rule="evenodd"/>
        <path d="M25.63,46.87h20.02c1.01,0,2.3,1.44,2.23,2.95-.14,1.58-1.58,2.45-3.02,2.45l-34.63-.14v15.91H44.06c9.43,0,17.5-7.78,17.5-18.07,.07-9.58-6.34-18.14-15.05-18.14H25.7c-.99-.57-1.37-1.44-1.37-2.66,0-1.44,1.08-2.95,2.09-2.95,13.61,.22,35.06,.14,35.06,.14V10.66H25.63c-8.14-.07-15.84,8.28-15.84,18.07s6.91,18.14,15.84,18.14Z" fill="#009fe3" fill-rule="evenodd"/>
      </g>
      <g>
        <path d="M107.58,20.94h406.7V0H108.38s-.98,.05-1.51,.15c-5.26,.75-10.66,3.23-14.11,7.88-2.3,2.85-4.18,6.98-5.18,11.11,.22,.75-.36,1.35-.22,2.03-.5,3.68-.14,7.36,.72,11.11,.29,.68,.29,1.43,.72,2.1,.43,1.5,1.22,2.63,1.8,3.98,.36,.37,.5,.9,.79,1.43,.36,.68,1.22,1.65,.79,1.05,2.45,3.23,5.4,5.71,9,7.36,.79,.08,1.44,.53,2.3,.68,1.8,.6,3.1,.6,4.61,.75l2.16,.08,1.37,.07,21.96,.08c1.08,.37,1.51,1.05,1.94,1.88,.43,.9,.43,2.18,0,3.15-.5,1.2-1.3,1.95-2.45,2.18,0,0-35.28-.15-45-.07v20.87h45.29c2.88,0,5.4-1.13,7.7-2.1,1.3-.98,2.95-1.43,3.96-2.78,1.58-1.13,3.02-3.3,4.25-4.88,2.3-3.9,3.96-8.33,4.1-13.14,.07-.9,.22-1.43,.14-2.48-.22-9.38-5.11-16.74-10.94-20.65-3.31-2.18-6.84-3.9-11.3-3.9-8.21-.15-22.25,.07-24.05-.15-1.15-.6-.94-.3-1.3-.75-.94-.9-1.01-3.08-.65-3.98,.43-1.13,1.01-1.95,2.3-2.1Z" fill="#009fe3" fill-rule="evenodd"/>
        <path d="M182.4,25.23c-17.42,0-27.29,11.21-27.29,26.48s9.94,26.19,27.29,26.19,27.29-11.66,27.29-26.19c0-15.27-9.94-26.48-27.29-26.48Zm0,40.94c-7.99,0-8.57-9.44-8.57-14.39s.79-14.98,8.57-14.98,8.57,9.96,8.57,14.98-.58,14.39-8.57,14.39Z" fill="#009fe3" fill-rule="evenodd"/>
        <path d="M248.64,58.11c7.27-2.18,10.44-5.33,10.44-12.84,0-12.54-10.3-17.27-22.61-17.27h-23.83v49.62h19.3v-15.92s1.87,3.3,3.96,6.91c2.38,4.28,5.04,9.01,5.04,9.01h22.75l-15.05-19.52Zm-12.74-8.26c-.86,.07-1.73,.15-2.59,.15h-1.37v-8.41h1.51c.86,0,1.66,0,2.45,.08,2.23,.3,3.89,1.28,3.89,4.2,0,2.63-1.73,3.6-3.89,3.98Z" fill="#009fe3" fill-rule="evenodd"/>
        <path d="M301.77,58.11c7.34-2.18,10.51-5.33,10.51-12.84,0-12.54-10.37-17.27-22.61-17.27h-23.9v49.62h19.37v-15.92s1.87,3.3,3.89,6.91c2.45,4.28,5.11,9.01,5.11,9.01h22.82l-15.19-19.52Zm-12.75-8.26c-.79,.07-1.66,.15-2.52,.15h-1.37v-8.41h1.51c.86,0,1.66,0,2.37,.08,2.3,.3,3.96,1.28,3.96,4.2,0,2.63-1.73,3.6-3.96,3.98Z" fill="#009fe3" fill-rule="evenodd"/>
        <polygon points="318.75 28 355.33 28 355.33 41.59 338.62 41.59 338.62 46.32 353.89 46.32 353.89 59.16 338.62 59.16 338.62 64.04 355.9 64.04 355.9 77.62 318.75 77.62 318.75 28" fill="#009fe3" fill-rule="evenodd"/>
        <path d="M395.15,28h19.15v49.7l-19.01,.08-16.56-24.85v24.7h-18.86V28h18.94l16.34,25.15V28Z" fill="#009fe3" fill-rule="evenodd"/>
        <polygon points="416.97 28 458.52 28 458.52 44.14 447.65 44.14 447.65 77.62 427.7 77.62 427.7 44.14 416.97 44.22 416.97 28" fill="#009fe3" fill-rule="evenodd"/>
        <path d="M486.31,25.23c-17.42,0-27.29,11.21-27.29,26.48s9.94,26.19,27.29,26.19,27.29-11.66,27.29-26.19c0-15.27-9.94-26.48-27.29-26.48Zm0,40.94c-7.99,0-8.57-9.44-8.57-14.39s.79-14.98,8.57-14.98,8.57,9.96,8.57,14.98-.58,14.39-8.57,14.39Z" fill="#009fe3" fill-rule="evenodd"/>
      </g>
    </g>
  </g>
</svg>